<?xml version="1.0" standalone="no"?>
<!DOCTYPE svg PUBLIC "-//W3C//DTD SVG 20010904//EN"
 "http://www.w3.org/TR/2001/REC-SVG-20010904/DTD/svg10.dtd">
<svg version="1.0" xmlns="http://www.w3.org/2000/svg"
 width="512.000000pt" height="512.000000pt" viewBox="0 0 512.000000 512.000000"
 preserveAspectRatio="xMidYMid meet">
<metadata>
Created by potrace 1.11, written by Peter Selinger 2001-2013
</metadata>
<g transform="translate(0.000000,512.000000) scale(0.100000,-0.100000)"
fill="#000000" stroke="none">
<path d="M1705 3382 c-187 -22 -375 -130 -505 -291 -19 -24 -40 -48 -45 -55
-27 -28 -109 -171 -153 -266 -58 -124 -122 -314 -138 -410 -3 -14 -6 -30 -9
-37 -2 -6 -7 -38 -11 -70 -3 -32 -8 -60 -9 -63 -6 -11 -19 -204 -19 -285 0
-99 24 -153 99 -224 78 -74 153 -106 245 -106 106 1 133 15 615 333 377 249
445 292 532 336 102 51 142 66 179 66 44 0 50 -13 69 -150 45 -319 130 -429
333 -433 264 -4 568 114 927 362 171 119 371 297 472 421 15 19 32 40 38 47
23 28 31 40 53 80 34 63 51 128 48 190 -3 47 -7 60 -30 80 -15 13 -41 24 -59
24 -18 1 -41 2 -52 3 -37 2 -100 -15 -155 -41 -67 -33 -97 -53 -179 -121 -118
-98 -247 -189 -334 -236 -60 -31 -164 -74 -197 -81 -135 -26 -183 -9 -208 75
-6 21 -5 199 2 234 3 16 8 73 12 127 7 95 6 99 -21 146 -35 59 -118 141 -162
159 -126 53 -353 -52 -758 -351 -38 -28 -135 -100 -213 -159 -79 -58 -156
-112 -170 -120 -44 -21 -84 -15 -101 16 -15 26 -12 33 91 245 116 238 140 302
141 379 2 115 -80 172 -258 178 -22 1 -53 0 -70 -2z"/>
</g>
</svg>
